<?xml version="1.0" standalone="no"?>
<!DOCTYPE svg PUBLIC "-//W3C//DTD SVG 20010904//EN"
 "http://www.w3.org/TR/2001/REC-SVG-20010904/DTD/svg10.dtd">
<svg version="1.0" xmlns="http://www.w3.org/2000/svg"
 width="411.000000pt" height="411.000000pt" viewBox="0 0 411.000000 411.000000"
 preserveAspectRatio="xMidYMid meet">
<metadata>
Created by potrace 1.11, written by Peter Selinger 2001-2013
</metadata>
<g transform="translate(0.000000,411.000000) scale(0.100000,-0.100000)"
fill="#000000" stroke="none">
<path d="M3395 3927 c-106 -109 -134 -134 -280 -251 -60 -48 -119 -96 -130
-105 -42 -34 -339 -254 -544 -402 -117 -85 -303 -220 -412 -301 -109 -81 -200
-144 -203 -140 -2 4 -7 30 -11 57 -28 199 -146 607 -269 929 -38 101 -42 98
-21 -14 8 -44 14 -84 20 -130 3 -25 7 -56 10 -70 3 -14 7 -36 9 -50 3 -14 8
-47 11 -75 3 -27 7 -61 10 -75 6 -33 15 -97 21 -140 4 -33 21 -155 29 -210 5
-30 11 -78 25 -190 6 -47 13 -101 16 -121 4 -35 2 -38 -96 -118 -193 -158
-350 -326 -396 -425 -49 -106 -5 -221 134 -350 90 -84 121 -109 184 -153 43
-31 66 -53 64 -63 -108 -408 -323 -865 -533 -1137 -60 -77 -66 -82 -130 -104
-38 -12 -95 -34 -128 -49 -100 -46 -109 -76 -26 -87 22 -3 41 -9 41 -13 0 -12
-56 -54 -119 -91 -33 -19 -61 -37 -61 -40 0 -3 21 -3 46 1 25 4 109 5 185 3
160 -4 195 5 231 62 l23 36 100 -7 c229 -15 263 -3 105 36 -47 12 -104 27
-127 33 l-42 12 30 60 c20 42 39 65 62 76 57 29 335 118 547 175 157 42 491
141 610 180 246 82 373 158 386 232 6 28 2 37 -28 65 -20 17 -62 45 -94 62
-33 16 -97 52 -144 79 -47 27 -110 63 -141 80 -31 17 -186 108 -343 201 -243
144 -286 173 -282 190 2 11 16 65 31 120 42 161 67 301 81 445 2 25 4 123 5
218 l0 173 72 53 c40 29 140 99 222 156 260 179 414 302 662 526 82 74 358
348 413 410 26 29 136 158 178 208 28 34 95 126 90 125 -1 0 -43 -42 -93 -92z
m-1694 -1539 c0 -13 2 -32 5 -43 8 -43 5 -222 -4 -265 -6 -25 -13 -57 -16 -72
-14 -70 -18 -87 -37 -168 -12 -47 -22 -89 -23 -95 -2 -5 -6 -27 -11 -48 -4
-20 -11 -39 -15 -42 -13 -8 -229 135 -256 170 -68 90 -19 234 137 396 58 59
202 188 212 189 4 0 7 -10 8 -22z m139 -1015 c108 -66 318 -184 475 -268 271
-145 315 -175 315 -216 0 -50 -134 -126 -345 -197 -104 -35 -453 -138 -495
-147 -8 -2 -91 -24 -185 -50 -219 -60 -348 -95 -358 -95 -5 0 2 19 16 43 49
83 171 334 234 482 60 139 173 445 188 507 8 32 -5 37 155 -59z"/>
<path d="M2275 3978 c-71 -10 -92 -16 -107 -31 -7 -6 -30 -25 -51 -40 -53 -40
-73 -64 -98 -115 -45 -96 -18 -220 58 -272 72 -49 202 -23 279 56 59 62 106
194 99 285 -6 89 -73 133 -180 117z"/>
</g>
</svg>
